<svg xmlns="http://www.w3.org/2000/svg" viewBox="0 0 64 64" role="img" aria-label="ERBMS">
  <defs>
    <linearGradient id="g" x1="0" x2="1" y1="0" y2="1">
      <stop offset="0" stop-color="#0f2d3f" />
      <stop offset="1" stop-color="#1f6f8b" />
    </linearGradient>
  </defs>
  <rect width="64" height="64" rx="12" fill="url(#g)" />
  <path d="M32 14l14 6v11c0 9.2-6.4 17.1-14 19-7.6-1.9-14-9.8-14-19V20l14-6z" fill="#f8f3e7" />
  <path d="M26 31a6 6 0 0 1 12 0v5h2a2 2 0 0 1 2 2v8a2 2 0 0 1-2 2H24a2 2 0 0 1-2-2v-8a2 2 0 0 1 2-2h2v-5zm4 0v5h4v-5a4 4 0 0 0-8 0z" fill="#0f2d3f" />
</svg>
